<svg id="Layer_1" data-name="Layer 1" xmlns="http://www.w3.org/2000/svg" viewBox="0 0 550 500">
<defs>
<style>.cls-1,.cls-6{fill:#fbfcfc;}.cls-2{fill:#fcce67;}.cls-2,.cls-3,.cls-5,.cls-6{stroke:#364166;stroke-linecap:round;stroke-linejoin:round;stroke-width:3px;}.cls-3{fill:none;}.cls-4,.cls-5{fill: #ffffff;}</style>
</defs>
<title>support</title>
<path class="cls-2" d="M458.31,271.85c1.22-4.87.23-9.36-.06-14.4-.85-14.68-.51-29.52-3.1-44.06H442.48l.62,5c0,7.81.35,30.26.58,38.05.15,4.91-1.44,10.09-1.17,14.82"/><path class="cls-3" d="M458.31,271.25c-1.95,1.72-11.95,1.59-15.72.89"/><path class="cls-3" d="M455.15,213.39c0-3.9-.55-8.58-.62-12.17a96.66,96.66,0,0,0-12.74.05,65,65,0,0,1,.81,11.39"/><path class="cls-3" d="M442.51,271.25c.34,6.23,4.79,13.35,8.49,18.45,2.18-6,5.75-11.65,7.31-17.85"/><path class="cls-3" d="M494.46,296.76c7.35-7.93,22.12-24.35,32.22-34.44-1.82,11.31-1.25,22.14-1.09,33.49.07,4.8-1.36,14.31-.4,17.94"/><path class="cls-3" d="M505.7,285.37c5.51,3.24,14.93,4.42,19.86,8.71"/><path class="cls-3" d="M489.65,192.84c1.76-13.14,14.3-4.37,17.19,2.73,1.39,3.42,3.82,16.2,9.46,9.27,0-.76-.45-1.21-1.31-1.33"/><path class="cls-3" d="M508,199.84c-4.34-5.66-14.8-2.23-15.82,4.61-.65,4.36,3.11,9.05,7.63,9.14,5.38.11,8.72-5.51,9.95-10"/><path class="cls-4" d="M201.44,227.08s78-3.49,106.45-9.53c8.91-1.89,15.8-4.21,18.37-8.57l8.68,18.1Z"/><polygon class="cls-4" points="213.88 159.3 220.37 159.3 218.62 125.62 211.89 124.33 213.88 159.3"/><polygon class="cls-4" points="298.89 126.86 305.39 126.86 303.64 160.53 296.9 161.82 298.89 126.86"/><path class="cls-4" d="M360.68,265.29c-4.79-.32-9.23-.71-12.88-.88C318,263,288.26,267,258.42,264.9c-11.16-.78-22.43.68-33.6.83-7.23.1-23.8-.06-31.91-3.59,38.49,2.66,75-5.68,111.16-8.77,26.1-2.23,56.92-1.4,81.45-11.81,6.32-2.68,10.75-7.22,15.82-11.6-1.06,14.72-2.17,30.45-20,33.94A84,84,0,0,1,360.68,265.29Z"/><path class="cls-3" d="M268.49,265.67c1.9,6.55-2.25,18.39-10.25,22.26,14,.06,45.08-.13,58.33,0-10-9.21-8.55-15.9-10.38-23.14"/><path class="cls-5" d="M338.36,300.16c-14.29.85-40.64-1.25-54.92-1-10.95.18-31.87.7-45.75.63-.15-1.14-.59-10.12,1.91-10.29,7-.5,97.12-3.16,98.18.87C338.67,293.72,339.21,296.73,338.36,300.16Z"/><path class="cls-3" d="M177.16,228.14c84.67,0,161.63-1.74,225.27-.77"/><path class="cls-3" d="M301.33,246c-.8-10.92-18.26-14.26-23.18-4.36C271,256,302.41,260.7,301.33,246Z"/><path class="cls-3" d="M218.45,123.65c-4-25.75,17.18-38.63,46.25-37.1,27,1.41,34.73,19.88,33.36,39.77"/><path class="cls-3" d="M298,127.07c24.66-6.67,27.48,33.28-1.59,34.79C295.69,150.69,298,127.07,298,127.07Z"/><path class="cls-3" d="M218.47,124.4c-24.67-6.68-27.48,33.28,1.59,34.78C220.78,148,218.47,124.4,218.47,124.4Z"/><path class="cls-3" d="M220.2,157.26c1.66,16.67,7,24.19,18.62,28,3.62,1.19,5.52,2.13,9.1,1.36,3-.63,5.78-2.71,9-1.87,2.48.64,4.65,3.25,2,5-3.37,2.34-13.47-1.22-16.37-3.17"/><path class="cls-6" d="M277.61,86.09c-7.95-2.55-19.47-2.6-24-2.27-6.67.48-22.81,2.15-24.92,9.51-2,7.06,9.8,3,13.82,2.34,6.77-1,17.59-2.12,24.49-1,4.51.74,18,4.79,18.79-.72C286.34,90.13,282.45,87.63,277.61,86.09Z"/><path class="cls-3" d="M305.94,126.73A231.71,231.71,0,0,1,304.29,154c-.24,2-.09,4-.65,6"/><path class="cls-3" d="M211,123.9c0,8.84,0,21.67,1.83,33.36"/><path class="cls-3" d="M286.94,111.36l11.27-.31c28.65-.74,57.22-1.24,79.78.7,39.75,3.43,24.75,58.46,24.06,82.39-1.11,38.66,10.55,74.54-41.37,71.15-4.79-.32-9.23-.71-12.88-.88C318,263,288.26,267,258.43,264.9c-22.51-1.56-82,10.2-81.15-23.37.39-16.3-1.15-29.06-3.48-45.2-2.4-16.52-5.33-49.19.84-64.76,9-22.66,24.45-20.88,43.33-19.82,2.37.13,6.5.25,9,.31"/><path class="cls-3" d="M267.89,96.08c-11.35-4.27-24.32-.8-33.93,7-5.47,4.41-10.63,17.4-12,24.78a71.14,71.14,0,0,0-.44,26c1.5,8.49,19.39,21,27.69,23.7,7.19,2.34,21.3,1.79,28.5-1.25,7.92-3.35,18.26-13.43,18.61-22.45.73-19-4.21-38.31-16.64-50"/><path class="cls-3" d="M333.94,227.08s-10-48.12-69.5-48.12S193,227.85,193,227.85"/><path class="cls-3" d="M240.46,134.77c3.87-1.48,11.08-1.17,13.57,1.14,3.1,2.89,2.79,10.71,3.41,14.57"/><path class="cls-3" d="M257.51,167.88a3.33,3.33,0,0,1-.32-.26c-1.45-1.33.16-3.9,1.9-4.11C265.28,162.75,261,170.33,257.51,167.88Z"/><path class="cls-3" d="M279.91,135.52c-3.43-1.54-8.14-2.38-11,0"/><path class="cls-5" d="M222.61,124.84c4.41-14.21,23.15-17.25,35.9-17.13,9.53.08,20.19-2.2,24.94-10.89-5.42,1.56-9.37,2-14.87-.48a38.52,38.52,0,0,0-22.76,0C224.94,102.84,222.61,124.84,222.61,124.84Z"/><line class="cls-3" x1="335.14" y1="134.77" x2="349.61" y2="134.77"/><path class="cls-3" d="M335.28,148.66c16.07.37,32.57.23,48.66,0"/><path class="cls-3" d="M358.94,134.77c8.3,0,15.5,0,24,.26"/><path class="cls-3" d="M334.94,162h8"/><path class="cls-3" d="M351.28,162.66h32.66"/><path class="cls-3" d="M383.94,176c-6.37.08-17.93-.21-22,.08"/><path class="cls-3" d="M20.41,75.07,79.63,27.78s49.24,37,59.22,47.29v72.79L20.41,151.59Z"/><path class="cls-3" d="M21.16,76.9c18.19,20.63,37.73,47.39,58.47,58.36,12.07-11.9,26.19-21.42,33.54-30.1,8.12-9.59,20.33-21.72,25.68-30.09"/><path class="cls-3" d="M21.16,149.46C28.56,144.85,47.93,122,54,117"/><path class="cls-3" d="M138.12,146.07c-9.44-9-20.88-28.26-29.73-35.94"/><path class="cls-2" d="M26.46,45.6c0,6,1.2,38.83,1.2,38.83s9.2,10.95,13.93,16.42c12.17,14.1,24.86,27.44,38,34.41,12.07-11.9,26.19-21.42,33.54-30.1,5.12-6,17.51-19.61,17.51-19.61s1.11-33.29-1.56-39.95Z"/><path class="cls-3" d="M86.12,78.32c4.42-9.52-16.78-3.17-16.9,5.39-.16,11.92,17.57-3.17,19.53-9.07C87,77.07,80,87.43,83.35,90.3,88.57,94.83,100.79,78.9,99.79,74c-3.64-18-35.69-7.41-40.7,4.35-3.19,7.5-1.7,18.14,6,22.4,8.16,4.53,17.91-1.1,25.05-5.07"/><path class="cls-3" d="M411.2,61.28a34.69,34.69,0,0,1-9.85,14.18c-11.82,10.17-37.14,5.78-50.91,1.87-8.51,1.06-17.24,5.31-21.24,16,.64-8,.68-16.18,12.46-23.78-18.55-24.27-3.32-53.89,23.8-64C399.52-7.08,421.73,33.43,411.2,61.28Z"/><path class="cls-3" d="M355.3,35.15a129.89,129.89,0,0,0,37.91,3c-1.37-1.83-4.06-5.94-6-7.51a65.3,65.3,0,0,1,6,7.51c-2.25,2.38-5.51,5.72-8.62,7"/><path class="cls-3" d="M394.87,55.19a129.89,129.89,0,0,1-37.91,3c1.38-1.83,4.06-6,6-7.52a66.31,66.31,0,0,0-6,7.52c2.25,2.38,5.51,5.71,8.62,7"/><path class="cls-3" d="M106.85,228.75c1.36,4.82,1.33,6.18,1.12,11.17a24.66,24.66,0,0,0,10,.08c.18-5.52-.67-6-1-11.35,3.38.42,6.1-.53,9.72-1.52-5.73-6.56-10.15-15.54-15.12-23.4-3.91,7.83-10.18,15.48-13.15,23.73C101.25,228.8,106.85,228.75,106.85,228.75Z"/><path class="cls-3" d="M88.61,217c3.53-1.39,6.7-3.63,10-5.5"/><path class="cls-3" d="M88.11,202.5h7.5"/><path class="cls-3" d="M92.61,188.5c.74.1,6.6,5.3,8.5,7"/><path class="cls-3" d="M110.11,179.5c0,4.18.64,8.3.5,12.5"/><path class="cls-3" d="M129.46,186.54c-3.48,1.9-6.07,5.2-8.85,8"/><path class="cls-3" d="M136.6,202.5c-4.25-.5-6.69-.2-11.36-.5"/><path class="cls-3" d="M132.11,217c-3.24-1.19-5.06-3.24-7.53-5.5"/><path class="cls-3" d="M454.53,380.21c3.53-1.4,6.7-3.63,10-5.5"/><path class="cls-3" d="M454,365.71h7.5"/><path class="cls-3" d="M458.53,351.71c.74.09,6.59,5.3,8.5,7"/><path class="cls-3" d="M476,342.71c0,4.18.64,8.3.5,12.5"/><path class="cls-3" d="M495.38,349.75c-3.48,1.9-6.07,5.2-8.85,8"/><path class="cls-3" d="M502.52,365.71c-4.25-.5-6.69-.2-11.37-.5"/><path class="cls-3" d="M498,380.21c-3.25-1.19-5.06-3.24-7.53-5.5"/><path class="cls-3" d="M469.34,452.78c.09-5.67,1.33-11.95-.63-17.36-2.15-6-8.7-9.65-11.18-15.42-2.67-6.24-1.11-15.6.47-22,.46-1.85,1.47-4.45,3.46-5.16a3.45,3.45,0,0,1,4.12,2.42c.87,3.5-1.65,9,1.71,11.85,3.79,3.21,4.12-5.55,4.19-7,.27-6.11,1-12.21,1.22-18.32.09-2.85.86-14.38,3.84-15.79,8.95-4.26,2.1,30.86,5.8,32.5,2.18,1,2.19-7.24,6.54-5,1.4.74,1.9,3.56,3.27,4.06s1.52-1.81,2.3-2.83c1-1.33,2.32-1.92,3.72-1a9.26,9.26,0,0,1,1.54,2.07c.54.83,1.09,1.58,1.61,1.64,1,.12,1-1.33,1.65-1.79,4.1-2.87,3,5.87,3,7.24-.11,8.67-3.41,14.19-6.87,21.67-3.68,8-4.67,14.46-5.53,23.62"/><path class="cls-3" d="M59.35,365.72l.39-.24c6.37-4.1,4.1-12.86,3.71-19.14-.79-12.76-1.11-25.57-1.21-38.35-.06-8.61,4.46-29.62-6.32-34.32-4.78-2.09-18.43-1.51-22,2.79-5.92,7.18-3.21,19.8-3.8,28.38-1.1,15.66-.57,31.33-1.16,47C28.48,365.21,48.42,372.29,59.35,365.72Z"/><path class="cls-5" d="M116.33,303.32c0,1.29,0,2.24,0,2.69-14.57,2.33-29.73-.69-44.37,1.17-.4-10.65,2.27-22-.92-32.44.15.47,40.28-1.46,43.89-1.68C115.49,273,116.2,295.14,116.33,303.32Z"/><path class="cls-3" d="M62.19,279.25a24.53,24.53,0,0,0,8.5-1"/><path class="cls-3" d="M116.19,279.25a49.62,49.62,0,0,0,11,1c1,16.68,1.85,33.37,2,50.08,0,2.85-1.23,43.3,0,43.26-10,.32-19,.11-28.91-.4-4.93-.25-77.28,3.17-77.49-.56-.82-17-1.29-34-1.22-51,0-7.83-1-16.33.43-24.07,1.17-6.35,2.3-11.05,1.3-17.74,2.28-.12,4.63-.07,6.93-.07"/><path class="cls-3" d="M48.19,368.25c4.48,16.32-7.58,23.37-23,23.64-19.4.33-23.69-11.7-21.39-28.69,2-15,1.45-29,1.86-44,.27-9.81,5.61-13.45,14.51-16"/><path class="cls-3" d="M79.6,326.3a47,47,0,0,1-8.54-.23c.08,0,.28-9.13,0-9.94,1.52-.45,8.19.09,8.54,0C79.09,316.26,79.77,324.67,79.6,326.3Z"/><path class="cls-3" d="M91,326.39c-2.46,0-5.08-.09-5.08-.36,0-3.29-.38-6.23-.17-9.53,2.57,0,5.15-.15,7.73-.37-.19,0,.06,9.62,0,10.26Z"/><path class="cls-3" d="M117.67,325.48c-2.47,0-5.09-.09-5.08-.36,0-3.29-.38-6.23-.17-9.53,2.56,0,5.15-.15,7.73-.37-.2,0,.06,9.62,0,10.26Z"/><path class="cls-3" d="M107.27,316.13a96.36,96.36,0,0,1,.09,9.79,31.32,31.32,0,0,1-8-.17c.06-.86.26-10,.39-10C102,315.8,105.06,315.9,107.27,316.13Z"/><path class="cls-3" d="M112.6,343.63a47.14,47.14,0,0,0,8.55-.24c-.08,0-.29-9.12,0-9.94-1.53-.45-8.19.09-8.55,0C113.12,333.59,112.44,342,112.6,343.63Z"/><path class="cls-3" d="M102.19,343.72c2.46,0,5.08-.09,5.08-.36,0-3.3.44-6.79.23-10.09-2.57,0-5.21.4-7.79.18.19,0-.07,9.62,0,10.26Z"/><path class="cls-3" d="M74.54,343.81c2.46,0,5.08-.09,5.08-.36,0-3.3.22-6.69,0-10-2.57,0-5,.31-7.57.09.19,0-.06,9.62,0,10.26Z"/><path class="cls-3" d="M85.94,333.45c-.26.69-.17,8.92-.09,9.79,2.19.17,5.91.36,8-.17-.06-.86-.26-10-.39-10C91.21,333.12,88.15,333.23,85.94,333.45Z"/><path class="cls-3" d="M80.6,351.52a47,47,0,0,0-8.54.23c.08,0,.28,9.13,0,9.94,1.52.45,8.19-.09,8.54,0C80.09,361.56,80.77,353.15,80.6,351.52Z"/><path class="cls-3" d="M91,351.43c-2.46,0-5.08.09-5.08.36,0,3.29-.44,6.78-.23,10.08,2.57,0,5.21-.4,7.79-.18-.19,0,.06-9.62,0-10.26Z"/><path class="cls-3" d="M118.67,351.34c-2.47,0-5.09.09-5.08.36,0,3.29-.22,6.69,0,10,2.56,0,5-.31,7.57-.09-.2,0,.06-9.62,0-10.26Z"/><path class="cls-3" d="M107.27,361.69a96.36,96.36,0,0,0,.09-9.79,31.32,31.32,0,0,0-8,.17c.06.86.26,10,.39,10C102,362,105.06,361.92,107.27,361.69Z"/><path class="cls-4" d="M483.66,115.67c-.43,5.27-1.89,10.31-3.8,13.46-6.58,10.83-27.25,13.8-38.88,14.25-6.31,3-12,8.44-12.38,17.72-1.52-6.34-3.54-12.67,3.64-21.5-1.27,1.56-9-10.32-9-12.55,20.12,1.4,57.61-1.3,53.64-31.17C482.69,99.31,484.32,107.76,483.66,115.67Z"/><path class="cls-3" d="M483.9,115.69a28.28,28.28,0,0,1-4,13.44c-6.58,10.83-27.25,13.8-38.88,14.25-6.31,3-12,8.44-12.38,17.72-1.52-6.34-3.54-12.67,3.65-21.51-.82,1-10.23-10.09-12.5-18.22-2.49-8.93,1.17-21.45,6.79-28.1C446.09,70.11,485.34,85.06,483.9,115.69Z"/><path class="cls-3" d="M444.42,108.17c-1.07-6.13,8.67-13.73,13.17-7.7,3.43,4.58-4.65,12.81-6.5,17"/><path class="cls-3" d="M450.61,127c.3,0,.84-1.66.65-.77a3.86,3.86,0,0,0,.59,1.64q.82.22-.57-1.53"/><path class="cls-4" d="M249.41,366.7c-6.25-6.11-18.68-10.92-27.39-8.94-8.45,1.92-17.66,8.38-23.25,14.81-12.4,14.25-8.22,41.21,8.3,50.45,10.34,5.78,24.57,3.18,34.63-2.3,11.82-6.44,19.38-26.55,16.37-39.21A31.18,31.18,0,0,0,249.41,366.7Z"/><path class="cls-3" d="M268.25,389c-3.56,0-7.13.22-10.69.15.83,1.64,7.78,10.31,10,13.1a80.92,80.92,0,0,0,5.46,6.38,29.11,29.11,0,0,1,2.71,2.8,64.84,64.84,0,0,1,5.2-5.9,178.36,178.36,0,0,0,12.14-15.15c-2.48-.85-8.7-1.21-8.7-1.21-.92-25.17-14.65-49.82-41.71-56.68-42.17-10.68-82.42,20.81-77.5,69.81,3.24,32.36,31.52,52.27,59.31,52.9v-16.8c-20.29-.46-41.51-14.94-43.29-38.62-2.44-32.44,25.8-58.77,56.59-51,19.09,4.84,29.09,21.81,30.35,39.53"/><path class="cls-3" d="M241.25,427.83c.32-9.67,19.22-4.48,13.57,6.34-4.57,8.77-13.85,11.33-16.94,21.62,3.74-.88,7.94-.53,11.76-.47,1.83,0,9.18-.07,7.61,1"/><path class="cls-3" d="M284.25,441.33c-2.51,1.22-6.32-.32-9.18-.49-4.08-.25-8.18.43-12.23.62,3.7-7.14,9.87-13.65,12.92-20.89-.5,11.78,1,23.89,1,35.76"/><path class="cls-2" d="M226.43,390.44a4.78,4.78,0,0,0-3.61,1.42c-3,3.22.47,10,4.87,8.59C232.28,399,231.6,390.37,226.43,390.44Z"/><path class="cls-3" d="M206.55,384.16c4.9,4,9.32,6.26,14.77,9.16"/><path class="cls-3" d="M229.34,391.61c2.21-4.33,6.59-8,9.78-11.63,1.6-1.81,5.69-5.37,6.38-7.07"/><path class="cls-3" d="M226,359.55c.23.17.69-.42.6.78-.12-.34-.24-.68-.35-1"/><path class="cls-3" d="M192.92,394.87a4.18,4.18,0,0,0,1.83-.13"/><path class="cls-3" d="M225.75,421.86c.19.57.36,1.16.5,1.75"/><path class="cls-3" d="M104.84,446.07c19.69-11.23,13.5-39.78-5.68-46.62-23-8.2-39.77,14.75-29,35.78C77.54,449.69,89.38,454.88,104.84,446.07Z"/><path class="cls-2" d="M107.79,422.35c-6.54,5.43-13.28,15.14-21.44,16.42-.48-2.7-1.79-29.11-2.92-29.41C86.31,410.1,106.39,423.51,107.79,422.35Z"/><path class="cls-3" d="M212,37.58c-.73-8.78-12.79-23.75-22.65-18.15C169,31,214.76,71.07,212,37.58Z"/><path class="cls-3" d="M188,20.29a38.94,38.94,0,0,0-6.84-11"/><path class="cls-3" d="M184.11,23.49c-6-.69-8.29-3-11.92-6.17"/><path class="cls-3" d="M205,23.49c-.52-3.39,5.89-7.81,8.5-5.17"/><path class="cls-3" d="M209.35,29.65c-.2-.91.83-2,1.57-2.59a9.59,9.59,0,0,1,4.73-1.44c2.81,0,3.45,1.31,4.7,3.7"/><path class="cls-3" d="M212.85,37.49c.22-.58,1.34-.8,2.4-.77,3.54.09,5.47,3.18,7.27,5.77"/><path class="cls-3" d="M186.85,37.65c-4.37.45-8.56,2.53-9.5,7.17"/><path class="cls-3" d="M190.85,42.82c-4.28-.17-5.39,5.56-5,8.67"/><path class="cls-3" d="M197.52,48.32c-4.69,1-1.78,7.16.17,9.17"/><path class="cls-3" d="M405.78,396.14c0-.36-54.37,4.3-59.51,4.12-1.57-12.43-4.76-42.67,7.4-50.72,8.1-5.35,29.57-5.74,38.45-2.89C412.15,353.07,406.69,380.18,405.78,396.14Z"/><path class="cls-3" d="M357.33,347.07c.05-11.35-3.17-24.64,16-29.62,20.49-5.33,20.67,13,20.41,16.83"/><path class="cls-5" d="M368.17,367.55a9.61,9.61,0,0,1,4.43-4.85c4.2-2.18,13.09.38,10.45,6.41-.75,1.72-2.89,2.54-4,4-1.76,2.45-1.52,4.43-1.4,7.13.08,1.65,1,5.14-1.77,5.3-2,.11-2.53-2.37-2.83-3.76-.23-1.1,0-2.74-.61-3.73-.82-1.41-2.14-1.39-3.14-2.52A7.49,7.49,0,0,1,368.17,367.55Z"/><path class="cls-3" d="M4.69,240.75c8.24,1.68,13.51-12.74,17.55-19.84,0,10.78,8.12,17.24,15.75,23.94-7.79,1.23-12.23,7.59-14.86,15.31-1.92-9.53-9.25-15.16-18.44-17.41"/></svg>